<?xml version="1.0" encoding="UTF-8" standalone="no"?>
<!DOCTYPE svg PUBLIC "-//W3C//DTD SVG 1.1//EN" "http://www.w3.org/Graphics/SVG/1.1/DTD/svg11.dtd">
<svg width="100%" height="100%" viewBox="0 0 123 123" version="1.1" xmlns="http://www.w3.org/2000/svg" xmlns:xlink="http://www.w3.org/1999/xlink" xml:space="preserve" xmlns:serif="http://www.serif.com/" style="fill-rule:evenodd;clip-rule:evenodd;stroke-linejoin:round;stroke-miterlimit:2;">
    <g transform="matrix(1,0,0,1,-560.391,-403.256)">
        <g>
            <g transform="matrix(1.05038,0,0,1.05038,-31.325,-23.4085)">
                <circle cx="621.771" cy="464.636" r="47.051" style="fill:rgb(93,87,80);"/>
                <path d="M621.771,415.269C594.525,415.269 572.404,437.39 572.404,464.636C572.404,491.883 594.525,514.004 621.771,514.004C649.018,514.004 671.139,491.883 671.139,464.636C671.139,437.39 649.018,415.269 621.771,415.269ZM621.771,417.586C647.74,417.586 668.822,438.668 668.822,464.636C668.822,490.605 647.74,511.687 621.771,511.687C595.803,511.687 574.721,490.605 574.721,464.636C574.721,438.668 595.803,417.586 621.771,417.586Z" style="fill:rgb(39,37,34);"/>
                <g transform="matrix(1.57647,0,0,1,-368.861,-5.44126)">
                    <path d="M628.386,413.958L637.455,432.096L619.318,432.096L628.386,413.958Z" style="fill:rgb(93,87,80);"/>
                    <path d="M629.54,412.524C629.262,411.967 628.836,411.642 628.386,411.642C627.936,411.642 627.511,411.967 627.232,412.524L618.164,430.662C617.815,431.359 617.75,432.308 617.996,433.107C618.241,433.905 618.755,434.412 619.318,434.412L637.455,434.412C638.018,434.412 638.531,433.905 638.777,433.107C639.023,432.308 638.957,431.359 638.609,430.662L629.54,412.524ZM628.386,413.958L637.455,432.096L619.318,432.096L628.386,413.958Z" style="fill:rgb(39,37,34);"/>
                </g>
                <g transform="matrix(9.6531e-17,-1.57647,1,6.12323e-17,151.694,1455.27)">
                    <path d="M628.386,413.958L637.455,432.096L619.318,432.096L628.386,413.958Z" style="fill:rgb(93,87,80);"/>
                    <path d="M629.54,412.524C629.262,411.967 628.836,411.642 628.386,411.642C627.936,411.642 627.511,411.967 627.232,412.524L618.164,430.662C617.815,431.359 617.75,432.308 617.996,433.107C618.241,433.905 618.755,434.412 619.318,434.412L637.455,434.412C638.018,434.412 638.531,433.905 638.777,433.107C639.023,432.308 638.957,431.359 638.609,430.662L629.54,412.524ZM628.386,413.958L637.455,432.096L619.318,432.096L628.386,413.958Z" style="fill:rgb(39,37,34);"/>
                </g>
                <g transform="matrix(-1.57647,-1.93062e-16,1.22465e-16,-1,1612.4,934.714)">
                    <path d="M628.386,413.958L637.455,432.096L619.318,432.096L628.386,413.958Z" style="fill:rgb(93,87,80);"/>
                    <path d="M629.54,412.524C629.262,411.967 628.836,411.642 628.386,411.642C627.936,411.642 627.511,411.967 627.232,412.524L618.164,430.662C617.815,431.359 617.75,432.308 617.996,433.107C618.241,433.905 618.755,434.412 619.318,434.412L637.455,434.412C638.018,434.412 638.531,433.905 638.777,433.107C639.023,432.308 638.957,431.359 638.609,430.662L629.54,412.524ZM628.386,413.958L637.455,432.096L619.318,432.096L628.386,413.958Z" style="fill:rgb(39,37,34);"/>
                </g>
                <g transform="matrix(9.6531e-17,1.57647,-1,6.12323e-17,1091.85,-525.996)">
                    <path d="M628.386,413.958L637.455,432.096L619.318,432.096L628.386,413.958Z" style="fill:rgb(93,87,80);"/>
                    <path d="M629.54,412.524C629.262,411.967 628.836,411.642 628.386,411.642C627.936,411.642 627.511,411.967 627.232,412.524L618.164,430.662C617.815,431.359 617.75,432.308 617.996,433.107C618.241,433.905 618.755,434.412 619.318,434.412L637.455,434.412C638.018,434.412 638.531,433.905 638.777,433.107C639.023,432.308 638.957,431.359 638.609,430.662L629.54,412.524ZM628.386,413.958L637.455,432.096L619.318,432.096L628.386,413.958Z" style="fill:rgb(39,37,34);"/>
                </g>
                <g transform="matrix(0.707107,-0.707107,0.707107,0.707107,-47.4682,591.577)">
                    <path d="M581.883,432.522C565.951,435.073 560.018,435.093 544.086,432.522L551.035,426.586L574.934,426.586L581.883,432.522Z" style="fill:rgb(93,87,80);"/>
                    <path d="M582.25,434.81C583.141,434.667 583.869,434.019 584.113,433.149C584.358,432.28 584.075,431.348 583.388,430.761L576.439,424.824C576.019,424.466 575.486,424.269 574.934,424.269L551.035,424.269C550.483,424.269 549.95,424.466 549.531,424.824L542.581,430.761C541.895,431.347 541.612,432.279 541.855,433.148C542.099,434.017 542.826,434.665 543.717,434.809C559.959,437.43 566.007,437.41 582.25,434.81ZM581.883,432.522C565.951,435.073 560.018,435.093 544.086,432.522L551.035,426.586L574.934,426.586L581.883,432.522Z" style="fill:rgb(39,37,34);"/>
                </g>
                <g transform="matrix(-0.707107,-0.707107,0.707107,-0.707107,748.712,1133.88)">
                    <path d="M581.883,432.522C565.951,435.073 560.018,435.093 544.086,432.522L551.035,426.586L574.934,426.586L581.883,432.522Z" style="fill:rgb(93,87,80);"/>
                    <path d="M582.25,434.81C583.141,434.667 583.869,434.019 584.113,433.149C584.358,432.28 584.075,431.348 583.388,430.761L576.439,424.824C576.019,424.466 575.486,424.269 574.934,424.269L551.035,424.269C550.483,424.269 549.95,424.466 549.531,424.824L542.581,430.761C541.895,431.347 541.612,432.279 541.855,433.148C542.099,434.017 542.826,434.665 543.717,434.809C559.959,437.43 566.007,437.41 582.25,434.81ZM581.883,432.522C565.951,435.073 560.018,435.093 544.086,432.522L551.035,426.586L574.934,426.586L581.883,432.522Z" style="fill:rgb(39,37,34);"/>
                </g>
                <g transform="matrix(-0.707107,0.707107,-0.707107,-0.707107,1291.01,337.696)">
                    <path d="M581.883,432.522C565.951,435.073 560.018,435.093 544.086,432.522L551.035,426.586L574.934,426.586L581.883,432.522Z" style="fill:rgb(93,87,80);"/>
                    <path d="M582.25,434.81C583.141,434.667 583.869,434.019 584.113,433.149C584.358,432.28 584.075,431.348 583.388,430.761L576.439,424.824C576.019,424.466 575.486,424.269 574.934,424.269L551.035,424.269C550.483,424.269 549.95,424.466 549.531,424.824L542.581,430.761C541.895,431.347 541.612,432.279 541.855,433.148C542.099,434.017 542.826,434.665 543.717,434.809C559.959,437.43 566.007,437.41 582.25,434.81ZM581.883,432.522C565.951,435.073 560.018,435.093 544.086,432.522L551.035,426.586L574.934,426.586L581.883,432.522Z" style="fill:rgb(39,37,34);"/>
                </g>
                <g transform="matrix(0.707107,0.707107,-0.707107,0.707107,494.831,-204.603)">
                    <path d="M581.883,432.522C565.951,435.073 560.018,435.093 544.086,432.522L551.035,426.586L574.934,426.586L581.883,432.522Z" style="fill:rgb(93,87,80);"/>
                    <path d="M582.25,434.81C583.141,434.667 583.869,434.019 584.113,433.149C584.358,432.28 584.075,431.348 583.388,430.761L576.439,424.824C576.019,424.466 575.486,424.269 574.934,424.269L551.035,424.269C550.483,424.269 549.95,424.466 549.531,424.824L542.581,430.761C541.895,431.347 541.612,432.279 541.855,433.148C542.099,434.017 542.826,434.665 543.717,434.809C559.959,437.43 566.007,437.41 582.25,434.81ZM581.883,432.522C565.951,435.073 560.018,435.093 544.086,432.522L551.035,426.586L574.934,426.586L581.883,432.522Z" style="fill:rgb(39,37,34);"/>
                </g>
                <circle cx="621.771" cy="464.636" r="47.051" style="fill:rgb(93,87,80);"/>
            </g>
            <g transform="matrix(0.715067,0,0,0.715067,177.164,132.39)">
                <circle cx="621.771" cy="464.636" r="47.051" style="fill:rgb(94,88,81);"/>
                <path d="M621.771,415.488C594.646,415.488 572.623,437.511 572.623,464.636C572.623,491.762 594.646,513.785 621.771,513.785C648.897,513.785 670.92,491.762 670.92,464.636C670.92,437.511 648.897,415.488 621.771,415.488ZM621.771,417.586C647.74,417.586 668.822,438.668 668.822,464.636C668.822,490.605 647.74,511.687 621.771,511.687C595.803,511.687 574.721,490.605 574.721,464.636C574.721,438.668 595.803,417.586 621.771,417.586Z" style="fill:rgb(39,37,34);"/>
                <g transform="matrix(1.57647,0,0,1,-368.861,-5.44126)">
                    <path d="M628.386,413.958L637.455,432.096L619.318,432.096L628.386,413.958Z" style="fill:rgb(39,37,34);"/>
                    <path d="M629.083,413.092C628.915,412.756 628.658,412.56 628.386,412.56C628.115,412.56 627.858,412.756 627.69,413.092L618.621,431.23C618.41,431.651 618.371,432.224 618.519,432.706C618.668,433.188 618.978,433.494 619.318,433.494L637.455,433.494C637.795,433.494 638.105,433.188 638.253,432.706C638.402,432.224 638.362,431.651 638.152,431.23L629.083,413.092ZM628.386,413.958L637.455,432.096L619.318,432.096L628.386,413.958Z" style="fill:rgb(39,37,34);"/>
                </g>
                <g transform="matrix(9.6531e-17,-1.57647,1,6.12323e-17,151.694,1455.27)">
                    <path d="M628.386,413.958L637.455,432.096L619.318,432.096L628.386,413.958Z" style="fill:rgb(39,37,34);"/>
                    <path d="M629.083,413.092C628.915,412.756 628.658,412.56 628.386,412.56C628.115,412.56 627.858,412.756 627.69,413.092L618.621,431.23C618.41,431.651 618.371,432.224 618.519,432.706C618.668,433.188 618.978,433.494 619.318,433.494L637.455,433.494C637.795,433.494 638.105,433.188 638.253,432.706C638.402,432.224 638.362,431.651 638.152,431.23L629.083,413.092ZM628.386,413.958L637.455,432.096L619.318,432.096L628.386,413.958Z" style="fill:rgb(39,37,34);"/>
                </g>
                <g transform="matrix(-1.57647,-1.93062e-16,1.22465e-16,-1,1612.4,934.714)">
                    <path d="M628.386,413.958L637.455,432.096L619.318,432.096L628.386,413.958Z" style="fill:rgb(39,37,34);"/>
                    <path d="M629.083,413.092C628.915,412.756 628.658,412.56 628.386,412.56C628.115,412.56 627.858,412.756 627.69,413.092L618.621,431.23C618.41,431.651 618.371,432.224 618.519,432.706C618.668,433.188 618.978,433.494 619.318,433.494L637.455,433.494C637.795,433.494 638.105,433.188 638.253,432.706C638.402,432.224 638.362,431.651 638.152,431.23L629.083,413.092ZM628.386,413.958L637.455,432.096L619.318,432.096L628.386,413.958Z" style="fill:rgb(39,37,34);"/>
                </g>
                <g transform="matrix(9.6531e-17,1.57647,-1,6.12323e-17,1091.85,-525.996)">
                    <path d="M628.386,413.958L637.455,432.096L619.318,432.096L628.386,413.958Z" style="fill:rgb(39,37,34);"/>
                    <path d="M629.083,413.092C628.915,412.756 628.658,412.56 628.386,412.56C628.115,412.56 627.858,412.756 627.69,413.092L618.621,431.23C618.41,431.651 618.371,432.224 618.519,432.706C618.668,433.188 618.978,433.494 619.318,433.494L637.455,433.494C637.795,433.494 638.105,433.188 638.253,432.706C638.402,432.224 638.362,431.651 638.152,431.23L629.083,413.092ZM628.386,413.958L637.455,432.096L619.318,432.096L628.386,413.958Z" style="fill:rgb(39,37,34);"/>
                </g>
                <g transform="matrix(0.707107,-0.707107,0.707107,0.707107,-47.4682,591.577)">
                    <path d="M581.883,432.522C565.951,435.073 560.018,435.093 544.086,432.522L551.035,426.586L574.934,426.586L581.883,432.522Z" style="fill:rgb(39,37,34);"/>
                    <path d="M582.104,433.903C582.643,433.817 583.082,433.426 583.23,432.901C583.377,432.376 583.206,431.813 582.792,431.459L575.842,425.522C575.589,425.306 575.267,425.187 574.934,425.187L551.035,425.187C550.702,425.187 550.38,425.306 550.127,425.522L543.177,431.459C542.763,431.813 542.592,432.375 542.739,432.9C542.886,433.425 543.325,433.816 543.863,433.903C559.983,436.504 565.985,436.484 582.104,433.903ZM581.883,432.522C565.951,435.073 560.018,435.093 544.086,432.522L551.035,426.586L574.934,426.586L581.883,432.522Z" style="fill:rgb(39,37,34);"/>
                </g>
                <g transform="matrix(-0.707107,-0.707107,0.707107,-0.707107,748.712,1133.88)">
                    <path d="M581.883,432.522C565.951,435.073 560.018,435.093 544.086,432.522L551.035,426.586L574.934,426.586L581.883,432.522Z" style="fill:rgb(39,37,34);"/>
                    <path d="M582.104,433.903C582.643,433.817 583.082,433.426 583.23,432.901C583.377,432.376 583.206,431.813 582.792,431.459L575.842,425.522C575.589,425.306 575.267,425.187 574.934,425.187L551.035,425.187C550.702,425.187 550.38,425.306 550.127,425.522L543.177,431.459C542.763,431.813 542.592,432.375 542.739,432.9C542.886,433.425 543.325,433.816 543.863,433.903C559.983,436.504 565.985,436.484 582.104,433.903ZM581.883,432.522C565.951,435.073 560.018,435.093 544.086,432.522L551.035,426.586L574.934,426.586L581.883,432.522Z" style="fill:rgb(39,37,34);"/>
                </g>
                <g transform="matrix(-0.707107,0.707107,-0.707107,-0.707107,1291.01,337.696)">
                    <path d="M581.883,432.522C565.951,435.073 560.018,435.093 544.086,432.522L551.035,426.586L574.934,426.586L581.883,432.522Z" style="fill:rgb(39,37,34);"/>
                    <path d="M582.104,433.903C582.643,433.817 583.082,433.426 583.23,432.901C583.377,432.376 583.206,431.813 582.792,431.459L575.842,425.522C575.589,425.306 575.267,425.187 574.934,425.187L551.035,425.187C550.702,425.187 550.38,425.306 550.127,425.522L543.177,431.459C542.763,431.813 542.592,432.375 542.739,432.9C542.886,433.425 543.325,433.816 543.863,433.903C559.983,436.504 565.985,436.484 582.104,433.903ZM581.883,432.522C565.951,435.073 560.018,435.093 544.086,432.522L551.035,426.586L574.934,426.586L581.883,432.522Z" style="fill:rgb(39,37,34);"/>
                </g>
                <g transform="matrix(0.707107,0.707107,-0.707107,0.707107,494.831,-204.603)">
                    <path d="M581.883,432.522C565.951,435.073 560.018,435.093 544.086,432.522L551.035,426.586L574.934,426.586L581.883,432.522Z" style="fill:rgb(39,37,34);"/>
                    <path d="M582.104,433.903C582.643,433.817 583.082,433.426 583.23,432.901C583.377,432.376 583.206,431.813 582.792,431.459L575.842,425.522C575.589,425.306 575.267,425.187 574.934,425.187L551.035,425.187C550.702,425.187 550.38,425.306 550.127,425.522L543.177,431.459C542.763,431.813 542.592,432.375 542.739,432.9C542.886,433.425 543.325,433.816 543.863,433.903C559.983,436.504 565.985,436.484 582.104,433.903ZM581.883,432.522C565.951,435.073 560.018,435.093 544.086,432.522L551.035,426.586L574.934,426.586L581.883,432.522Z" style="fill:rgb(39,37,34);"/>
                </g>
                <circle cx="621.771" cy="464.636" r="47.051" style="fill:rgb(93,87,81);"/>
                <g transform="matrix(0.770493,9.43581e-17,-5.9854e-17,0.488745,137.604,300.503)">
                    <path d="M628.386,413.958L637.455,432.096L619.318,432.096L628.386,413.958Z" style="fill:rgb(39,37,34);"/>
                    <path d="M629.812,412.187C629.468,411.498 628.942,411.097 628.386,411.097C627.83,411.097 627.305,411.498 626.961,412.187L617.892,430.324C617.462,431.185 617.381,432.358 617.684,433.344C617.988,434.331 618.622,434.957 619.318,434.957L637.455,434.957C638.15,434.957 638.785,434.331 639.088,433.344C639.392,432.358 639.311,431.185 638.881,430.324L629.812,412.187ZM628.386,413.958L637.455,432.096L619.318,432.096L628.386,413.958Z" style="fill:rgb(39,37,34);"/>
                </g>
                <g transform="matrix(0,-0.770493,0.488745,-2.77556e-17,457.638,948.803)">
                    <path d="M628.386,413.958L637.455,432.096L619.318,432.096L628.386,413.958Z" style="fill:rgb(39,37,34);"/>
                    <path d="M629.812,412.187C629.468,411.498 628.942,411.097 628.386,411.097C627.83,411.097 627.305,411.498 626.961,412.187L617.892,430.324C617.462,431.185 617.381,432.358 617.684,433.344C617.988,434.331 618.622,434.957 619.318,434.957L637.455,434.957C638.15,434.957 638.785,434.331 639.088,433.344C639.392,432.358 639.311,431.185 638.881,430.324L629.812,412.187ZM628.386,413.958L637.455,432.096L619.318,432.096L628.386,413.958Z" style="fill:rgb(39,37,34);"/>
                </g>
                <g transform="matrix(-0.770493,-4.71791e-17,2.17144e-18,-0.488745,1105.94,628.77)">
                    <path d="M628.386,413.958L637.455,432.096L619.318,432.096L628.386,413.958Z" style="fill:rgb(39,37,34);"/>
                    <path d="M629.812,412.187C629.468,411.498 628.942,411.097 628.386,411.097C627.83,411.097 627.305,411.498 626.961,412.187L617.892,430.324C617.462,431.185 617.381,432.358 617.684,433.344C617.988,434.331 618.622,434.957 619.318,434.957L637.455,434.957C638.15,434.957 638.785,434.331 639.088,433.344C639.392,432.358 639.311,431.185 638.881,430.324L629.812,412.187ZM628.386,413.958L637.455,432.096L619.318,432.096L628.386,413.958Z" style="fill:rgb(39,37,34);"/>
                </g>
                <g transform="matrix(9.43581e-17,0.770493,-0.488745,8.76096e-17,785.905,-19.5305)">
                    <path d="M628.386,413.958L637.455,432.096L619.318,432.096L628.386,413.958Z" style="fill:rgb(39,37,34);"/>
                    <path d="M629.812,412.187C629.468,411.498 628.942,411.097 628.386,411.097C627.83,411.097 627.305,411.498 626.961,412.187L617.892,430.324C617.462,431.185 617.381,432.358 617.684,433.344C617.988,434.331 618.622,434.957 619.318,434.957L637.455,434.957C638.15,434.957 638.785,434.331 639.088,433.344C639.392,432.358 639.311,431.185 638.881,430.324L629.812,412.187ZM628.386,413.958L637.455,432.096L619.318,432.096L628.386,413.958Z" style="fill:rgb(39,37,34);"/>
                </g>
            </g>
            <g transform="matrix(0.212386,0,0,0.212386,489.716,365.954)">
                <circle cx="621.771" cy="464.636" r="47.051" style="fill:rgb(39,37,34);"/>
            </g>
        </g>
    </g>
</svg>
